<svg width="155" height="89" viewBox="0 0 155 89" fill="none" xmlns="http://www.w3.org/2000/svg">
<g filter="url(#filter0_d_1_62)">
<path d="M6 29.6008C4.89543 29.6008 4 28.7053 4 27.6008V2.39924C4 1.29467 4.89543 0.39924 6 0.39924H15.8616C18.0114 0.39924 19.8668 0.826997 21.4278 1.68251C22.9981 2.52852 24.2086 3.71198 25.0592 5.23289C25.9098 6.7443 26.3351 8.50285 26.3351 10.5086C26.3351 12.5238 25.9004 14.2871 25.0311 15.7985C24.1712 17.3004 22.9421 18.4648 21.3437 19.2918C19.7453 20.1188 17.8478 20.5323 15.6513 20.5323H10.3324C9.22785 20.5323 8.33242 19.6369 8.33242 18.5323V16.9715C8.33242 15.8669 9.22785 14.9715 10.3324 14.9715H14.3613C15.4082 14.9715 16.2822 14.7861 16.9832 14.4154C17.6936 14.0447 18.2311 13.5266 18.5956 12.8612C18.9602 12.1863 19.1424 11.4021 19.1424 10.5086C19.1424 9.60551 18.9602 8.82605 18.5956 8.17015C18.2311 7.50475 17.6936 6.99145 16.9832 6.63023C16.2728 6.26901 15.3989 6.0884 14.3613 6.0884H12.9403C11.8357 6.0884 10.9403 6.98383 10.9403 8.0884V27.6008C10.9403 28.7053 10.0448 29.6008 8.94028 29.6008H6Z" fill="#2896D3"/>
<path d="M31.7561 29.6008C30.6516 29.6008 29.7561 28.7053 29.7561 27.6008V2.39924C29.7561 1.29467 30.6516 0.39924 31.7561 0.39924H41.6177C43.7676 0.39924 45.623 0.793727 47.184 1.5827C48.7543 2.36217 49.9647 3.48384 50.8153 4.94772C51.6659 6.40209 52.0912 8.12738 52.0912 10.1236C52.0912 12.1483 51.6566 13.8688 50.7873 15.2852C49.918 16.692 48.6842 17.7662 47.0858 18.5076C45.4874 19.2395 43.5946 19.6055 41.4074 19.6055H35.9063C34.8017 19.6055 33.9063 18.7101 33.9063 17.6055V16.0447C33.9063 14.9401 34.8017 14.0447 35.9063 14.0447H40.1175C41.1644 14.0447 42.0383 13.9068 42.7394 13.6312C43.4498 13.346 43.9872 12.9183 44.3518 12.3479C44.7163 11.7681 44.8986 11.0266 44.8986 10.1236C44.8986 9.22053 44.7163 8.47433 44.3518 7.88498C43.9872 7.28612 43.4498 6.83935 42.7394 6.54468C42.029 6.2405 41.155 6.0884 40.1175 6.0884H38.6964C37.5919 6.0884 36.6964 6.98383 36.6964 8.0884V27.6008C36.6964 28.7053 35.801 29.6008 34.6964 29.6008H31.7561ZM44.7247 16.2548C45.4619 16.2548 46.1394 16.6604 46.4876 17.3102L51.495 26.6562C52.2089 27.9886 51.2436 29.6008 49.7321 29.6008H46.71C45.9669 29.6008 45.285 29.1887 44.9394 28.5308L40.0302 19.1848C39.3306 17.8531 40.2965 16.2548 41.8008 16.2548H44.7247Z" fill="#2896D3"/>
<path d="M83 15C83 18.2129 82.3924 20.9363 81.1773 23.1702C79.9622 25.404 78.3171 27.1008 76.242 28.2605C74.1763 29.4202 71.8582 30 69.2877 30C66.7079 30 64.3851 29.4154 62.3194 28.2462C60.2536 27.077 58.6132 25.3802 57.3981 23.1559C56.1923 20.9221 55.5894 18.2034 55.5894 15C55.5894 11.7871 56.1923 9.06369 57.3981 6.82985C58.6132 4.59601 60.2536 2.89924 62.3194 1.73954C64.3851 0.579848 66.7079 0 69.2877 0C71.8582 0 74.1763 0.579848 76.242 1.73954C78.3171 2.89924 79.9622 4.59601 81.1773 6.82985C82.3924 9.06369 83 11.7871 83 15ZM75.9055 15C75.9055 13.0989 75.6391 11.4924 75.1063 10.1806C74.5829 8.86882 73.8257 7.87547 72.8349 7.20057C71.8535 6.52567 70.6711 6.18821 69.2877 6.18821C67.9137 6.18821 66.7312 6.52567 65.7404 7.20057C64.7496 7.87547 63.9878 8.86882 63.455 10.1806C62.9316 11.4924 62.6699 13.0989 62.6699 15C62.6699 16.9011 62.9316 18.5076 63.455 19.8194C63.9878 21.1312 64.7496 22.1245 65.7404 22.7994C66.7312 23.4743 67.9137 23.8118 69.2877 23.8118C70.6711 23.8118 71.8535 23.4743 72.8349 22.7994C73.8257 22.1245 74.5829 21.1312 75.1063 19.8194C75.6391 18.5076 75.9055 16.9011 75.9055 15Z" fill="#2896D3"/>
<path d="M44.9877 50.2253C45.219 51.384 44.2847 52.4062 43.1032 52.4062H36.4121C35.4071 52.4062 34.5845 51.65 34.2831 50.6913C34.1457 50.2544 33.9785 49.8388 33.7814 49.4446C33.3411 48.5639 32.7587 47.8111 32.0343 47.1861C31.3098 46.5611 30.4505 46.0852 29.4561 45.7585C28.476 45.4176 27.3894 45.2472 26.1962 45.2472C24.0797 45.2472 22.2544 45.7656 20.7203 46.8026C19.2005 47.8395 18.0286 49.3381 17.2047 51.2983C16.3951 53.2585 15.9902 55.6307 15.9902 58.4148C15.9902 61.3125 16.4022 63.7415 17.226 65.7017C18.0641 67.6477 19.236 69.1179 20.7416 70.1122C22.2615 71.0923 24.0584 71.5824 26.1323 71.5824C27.297 71.5824 28.3553 71.4332 29.307 71.1349C30.2729 70.8366 31.1181 70.4034 31.8425 69.8352C32.5811 69.2528 33.1848 68.5497 33.6536 67.7259C33.8723 67.3463 34.0604 66.9449 34.218 66.5217C34.5583 65.6074 35.3689 64.8963 36.3445 64.9022L43.1214 64.9428C44.2963 64.9499 45.222 65.969 44.9435 67.1105C44.6517 68.3069 44.2122 69.4921 43.6252 70.6662C42.7019 72.5412 41.4306 74.2528 39.8113 75.8011C38.1919 77.3352 36.2175 78.5568 33.888 79.4659C31.5726 80.375 28.9164 80.8295 25.9192 80.8295C21.9703 80.8295 18.4334 79.9631 15.3084 78.2301C12.1976 76.483 9.74023 73.9403 7.93625 70.6023C6.13227 67.2642 5.23029 63.2017 5.23029 58.4148C5.23029 53.6136 6.14648 49.544 7.97887 46.206C9.81125 42.8679 12.2899 40.3324 15.4149 38.5994C18.5399 36.8665 22.0414 36 25.9192 36C28.5613 36 31.0044 36.3693 33.2488 37.108C35.4931 37.8324 37.4675 38.8977 39.172 40.304C40.8766 41.696 42.2615 43.4077 43.3269 45.4389C44.0861 46.8865 44.6397 48.482 44.9877 50.2253Z" fill="#3F3F3F"/>
<path d="M53.3436 80.233C52.239 80.233 51.3436 79.3375 51.3436 78.233V38.5966C51.3436 37.492 52.239 36.5966 53.3436 36.5966H79.7697C80.8743 36.5966 81.7697 37.492 81.7697 38.5966V43.1619C81.7697 44.2665 80.8743 45.1619 79.7697 45.1619H63.8904C62.7859 45.1619 61.8904 46.0574 61.8904 47.1619V52.1108C61.8904 53.2154 62.7859 54.1108 63.8904 54.1108H78.2143C79.3189 54.1108 80.2143 55.0062 80.2143 56.1108V60.6974C80.2143 61.802 79.3189 62.6974 78.2143 62.6974H63.8904C62.7859 62.6974 61.8904 63.5929 61.8904 64.6974V69.6676C61.8904 70.7722 62.7859 71.6676 63.8904 71.6676H79.7697C80.8743 71.6676 81.7697 72.563 81.7697 73.6676V78.233C81.7697 79.3375 80.8743 80.233 79.7697 80.233H53.3436Z" fill="#3F3F3F"/>
<path d="M93 80.4148C90.7909 80.4148 89 78.6239 89 76.4148V4.41477C89 2.20563 90.7909 0.414764 93 0.414764H121.927C127.894 0.414764 133.045 1.58665 137.378 3.9304C141.737 6.2481 145.097 9.49028 147.458 13.657C149.819 17.7976 151 22.6153 151 28.1101C151 33.6309 149.793 38.4616 147.38 42.6023C144.993 46.7169 141.581 49.907 137.144 52.1726C132.707 54.4382 127.44 55.571 121.343 55.571H105.026C102.817 55.571 101.026 53.7802 101.026 51.571V44.3366C101.026 42.1275 102.817 40.3366 105.026 40.3366H117.762C120.668 40.3366 123.094 39.8288 125.04 38.8132C127.012 37.7976 128.504 36.3783 129.516 34.5554C130.528 32.7064 131.034 30.558 131.034 28.1101C131.034 25.6361 130.528 23.5007 129.516 21.7038C128.504 19.8809 127.012 18.4747 125.04 17.4851C123.068 16.4955 120.642 16.0007 117.762 16.0007H112.266C110.056 16.0007 108.266 17.7916 108.266 20.0007V76.4148C108.266 78.6239 106.475 80.4148 104.266 80.4148H93Z" fill="#3F3F3F"/>
</g>
<defs>
<filter id="filter0_d_1_62" x="0" y="0" width="155" height="88.8295" filterUnits="userSpaceOnUse" color-interpolation-filters="sRGB">
<feFlood flood-opacity="0" result="BackgroundImageFix"/>
<feColorMatrix in="SourceAlpha" type="matrix" values="0 0 0 0 0 0 0 0 0 0 0 0 0 0 0 0 0 0 127 0" result="hardAlpha"/>
<feOffset dy="4"/>
<feGaussianBlur stdDeviation="2"/>
<feComposite in2="hardAlpha" operator="out"/>
<feColorMatrix type="matrix" values="0 0 0 0 0 0 0 0 0 0 0 0 0 0 0 0 0 0 0.25 0"/>
<feBlend mode="normal" in2="BackgroundImageFix" result="effect1_dropShadow_1_62"/>
<feBlend mode="normal" in="SourceGraphic" in2="effect1_dropShadow_1_62" result="shape"/>
</filter>
</defs>
</svg>
